<svg width="483" height="239" viewBox="0 0 483 239" fill="none" xmlns="http://www.w3.org/2000/svg">
<rect x="135" y="82" width="75" height="75" rx="24" fill="url(#paint0_linear_296_3659)"/>
<rect x="160" y="105" width="13" height="30" rx="6.5" fill="#D9D9D9"/>
<rect x="176" y="111" width="9" height="18" rx="4" fill="#D9D9D9"/>
<g clip-path="url(#clip0_296_3659)">
<path d="M348 62H233V177H348V62Z" fill="black"/>
<mask id="mask0_296_3659" style="mask-type:luminance" maskUnits="userSpaceOnUse" x="238" y="67" width="105" height="105">
<path d="M263.854 67.6097H261.049V70.4146H263.854V67.6097Z" fill="white"/>
<path d="M266.659 67.6097H263.854V70.4146H266.659V67.6097Z" fill="white"/>
<path d="M280.683 67.6097H277.878V70.4146H280.683V67.6097Z" fill="white"/>
<path d="M283.488 67.6097H280.683V70.4146H283.488V67.6097Z" fill="white"/>
<path d="M289.098 67.6097H286.293V70.4146H289.098V67.6097Z" fill="white"/>
<path d="M294.707 67.6097H291.902V70.4146H294.707V67.6097Z" fill="white"/>
<path d="M297.512 67.6097H294.707V70.4146H297.512V67.6097Z" fill="white"/>
<path d="M303.122 67.6097H300.317V70.4146H303.122V67.6097Z" fill="white"/>
<path d="M305.927 67.6097H303.122V70.4146H305.927V67.6097Z" fill="white"/>
<path d="M308.732 67.6097H305.927V70.4146H308.732V67.6097Z" fill="white"/>
<path d="M311.537 67.6097H308.732V70.4146H311.537V67.6097Z" fill="white"/>
<path d="M317.146 67.6097H314.341V70.4146H317.146V67.6097Z" fill="white"/>
<path d="M319.951 67.6097H317.146V70.4146H319.951V67.6097Z" fill="white"/>
<path d="M269.463 70.4146H266.659V73.2195H269.463V70.4146Z" fill="white"/>
<path d="M277.878 70.4146H275.073V73.2195H277.878V70.4146Z" fill="white"/>
<path d="M280.683 70.4146H277.878V73.2195H280.683V70.4146Z" fill="white"/>
<path d="M283.488 70.4146H280.683V73.2195H283.488V70.4146Z" fill="white"/>
<path d="M286.293 70.4146H283.488V73.2195H286.293V70.4146Z" fill="white"/>
<path d="M294.707 70.4146H291.902V73.2195H294.707V70.4146Z" fill="white"/>
<path d="M300.317 70.4146H297.512V73.2195H300.317V70.4146Z" fill="white"/>
<path d="M308.732 70.4146H305.927V73.2195H308.732V70.4146Z" fill="white"/>
<path d="M311.537 70.4146H308.732V73.2195H311.537V70.4146Z" fill="white"/>
<path d="M314.341 70.4146H311.537V73.2195H314.341V70.4146Z" fill="white"/>
<path d="M266.659 73.2195H263.854V76.0244H266.659V73.2195Z" fill="white"/>
<path d="M272.268 73.2195H269.463V76.0244H272.268V73.2195Z" fill="white"/>
<path d="M277.878 73.2195H275.073V76.0244H277.878V73.2195Z" fill="white"/>
<path d="M280.683 73.2195H277.878V76.0244H280.683V73.2195Z" fill="white"/>
<path d="M289.098 73.2195H286.293V76.0244H289.098V73.2195Z" fill="white"/>
<path d="M300.317 73.2195H297.512V76.0244H300.317V73.2195Z" fill="white"/>
<path d="M317.146 73.2195H314.341V76.0244H317.146V73.2195Z" fill="white"/>
<path d="M263.854 76.0244H261.049V78.8293H263.854V76.0244Z" fill="white"/>
<path d="M266.659 76.0244H263.854V78.8293H266.659V76.0244Z" fill="white"/>
<path d="M269.463 76.0244H266.659V78.8293H269.463V76.0244Z" fill="white"/>
<path d="M272.268 76.0244H269.463V78.8293H272.268V76.0244Z" fill="white"/>
<path d="M283.488 76.0244H280.683V78.8293H283.488V76.0244Z" fill="white"/>
<path d="M303.122 76.0244H300.317V78.8293H303.122V76.0244Z" fill="white"/>
<path d="M305.927 76.0244H303.122V78.8293H305.927V76.0244Z" fill="white"/>
<path d="M308.732 76.0244H305.927V78.8293H308.732V76.0244Z" fill="white"/>
<path d="M311.537 76.0244H308.732V78.8293H311.537V76.0244Z" fill="white"/>
<path d="M314.341 76.0244H311.537V78.8293H314.341V76.0244Z" fill="white"/>
<path d="M317.146 76.0244H314.341V78.8293H317.146V76.0244Z" fill="white"/>
<path d="M263.854 78.8293H261.049V81.6341H263.854V78.8293Z" fill="white"/>
<path d="M266.659 78.8293H263.854V81.6341H266.659V78.8293Z" fill="white"/>
<path d="M283.488 78.8293H280.683V81.6341H283.488V78.8293Z" fill="white"/>
<path d="M289.098 78.8293H286.293V81.6341H289.098V78.8293Z" fill="white"/>
<path d="M291.902 78.8293H289.098V81.6341H291.902V78.8293Z" fill="white"/>
<path d="M305.927 78.8293H303.122V81.6341H305.927V78.8293Z" fill="white"/>
<path d="M314.341 78.8293H311.537V81.6341H314.341V78.8293Z" fill="white"/>
<path d="M317.146 78.8293H314.341V81.6341H317.146V78.8293Z" fill="white"/>
<path d="M319.951 78.8293H317.146V81.6341H319.951V78.8293Z" fill="white"/>
<path d="M263.854 81.6341H261.049V84.439H263.854V81.6341Z" fill="white"/>
<path d="M269.463 81.6341H266.659V84.439H269.463V81.6341Z" fill="white"/>
<path d="M272.268 81.6341H269.463V84.439H272.268V81.6341Z" fill="white"/>
<path d="M277.878 81.6341H275.073V84.439H277.878V81.6341Z" fill="white"/>
<path d="M289.098 81.6341H286.293V84.439H289.098V81.6341Z" fill="white"/>
<path d="M294.707 81.6341H291.902V84.439H294.707V81.6341Z" fill="white"/>
<path d="M303.122 81.6341H300.317V84.439H303.122V81.6341Z" fill="white"/>
<path d="M311.537 81.6341H308.732V84.439H311.537V81.6341Z" fill="white"/>
<path d="M314.341 81.6341H311.537V84.439H314.341V81.6341Z" fill="white"/>
<path d="M263.854 84.439H261.049V87.2439H263.854V84.439Z" fill="white"/>
<path d="M269.463 84.439H266.659V87.2439H269.463V84.439Z" fill="white"/>
<path d="M275.073 84.439H272.268V87.2439H275.073V84.439Z" fill="white"/>
<path d="M280.683 84.439H277.878V87.2439H280.683V84.439Z" fill="white"/>
<path d="M286.293 84.439H283.488V87.2439H286.293V84.439Z" fill="white"/>
<path d="M291.902 84.439H289.098V87.2439H291.902V84.439Z" fill="white"/>
<path d="M297.512 84.439H294.707V87.2439H297.512V84.439Z" fill="white"/>
<path d="M303.122 84.439H300.317V87.2439H303.122V84.439Z" fill="white"/>
<path d="M308.732 84.439H305.927V87.2439H308.732V84.439Z" fill="white"/>
<path d="M314.341 84.439H311.537V87.2439H314.341V84.439Z" fill="white"/>
<path d="M319.951 84.439H317.146V87.2439H319.951V84.439Z" fill="white"/>
<path d="M263.854 87.2439H261.049V90.0488H263.854V87.2439Z" fill="white"/>
<path d="M266.659 87.2439H263.854V90.0488H266.659V87.2439Z" fill="white"/>
<path d="M269.463 87.2439H266.659V90.0488H269.463V87.2439Z" fill="white"/>
<path d="M280.683 87.2439H277.878V90.0488H280.683V87.2439Z" fill="white"/>
<path d="M286.293 87.2439H283.488V90.0488H286.293V87.2439Z" fill="white"/>
<path d="M294.707 87.2439H291.902V90.0488H294.707V87.2439Z" fill="white"/>
<path d="M300.317 87.2439H297.512V90.0488H300.317V87.2439Z" fill="white"/>
<path d="M303.122 87.2439H300.317V90.0488H303.122V87.2439Z" fill="white"/>
<path d="M305.927 87.2439H303.122V90.0488H305.927V87.2439Z" fill="white"/>
<path d="M308.732 87.2439H305.927V90.0488H308.732V87.2439Z" fill="white"/>
<path d="M314.341 87.2439H311.537V90.0488H314.341V87.2439Z" fill="white"/>
<path d="M317.146 87.2439H314.341V90.0488H317.146V87.2439Z" fill="white"/>
<path d="M319.951 87.2439H317.146V90.0488H319.951V87.2439Z" fill="white"/>
<path d="M241.415 90.0488H238.61V92.8536H241.415V90.0488Z" fill="white"/>
<path d="M252.634 90.0488H249.829V92.8536H252.634V90.0488Z" fill="white"/>
<path d="M258.244 90.0488H255.439V92.8536H258.244V90.0488Z" fill="white"/>
<path d="M261.049 90.0488H258.244V92.8536H261.049V90.0488Z" fill="white"/>
<path d="M263.854 90.0488H261.049V92.8536H263.854V90.0488Z" fill="white"/>
<path d="M266.659 90.0488H263.854V92.8536H266.659V90.0488Z" fill="white"/>
<path d="M269.463 90.0488H266.659V92.8536H269.463V90.0488Z" fill="white"/>
<path d="M272.268 90.0488H269.463V92.8536H272.268V90.0488Z" fill="white"/>
<path d="M277.878 90.0488H275.073V92.8536H277.878V90.0488Z" fill="white"/>
<path d="M280.683 90.0488H277.878V92.8536H280.683V90.0488Z" fill="white"/>
<path d="M283.488 90.0488H280.683V92.8536H283.488V90.0488Z" fill="white"/>
<path d="M286.293 90.0488H283.488V92.8536H286.293V90.0488Z" fill="white"/>
<path d="M294.707 90.0488H291.902V92.8536H294.707V90.0488Z" fill="white"/>
<path d="M297.512 90.0488H294.707V92.8536H297.512V90.0488Z" fill="white"/>
<path d="M300.317 90.0488H297.512V92.8536H300.317V90.0488Z" fill="white"/>
<path d="M314.341 90.0488H311.537V92.8536H314.341V90.0488Z" fill="white"/>
<path d="M319.951 90.0488H317.146V92.8536H319.951V90.0488Z" fill="white"/>
<path d="M322.756 90.0488H319.951V92.8536H322.756V90.0488Z" fill="white"/>
<path d="M325.561 90.0488H322.756V92.8536H325.561V90.0488Z" fill="white"/>
<path d="M328.366 90.0488H325.561V92.8536H328.366V90.0488Z" fill="white"/>
<path d="M331.171 90.0488H328.366V92.8536H331.171V90.0488Z" fill="white"/>
<path d="M333.976 90.0488H331.171V92.8536H333.976V90.0488Z" fill="white"/>
<path d="M342.39 90.0488H339.585V92.8536H342.39V90.0488Z" fill="white"/>
<path d="M247.024 92.8536H244.219V95.6585H247.024V92.8536Z" fill="white"/>
<path d="M249.829 92.8536H247.024V95.6585H249.829V92.8536Z" fill="white"/>
<path d="M255.439 92.8536H252.634V95.6585H255.439V92.8536Z" fill="white"/>
<path d="M263.854 92.8536H261.049V95.6585H263.854V92.8536Z" fill="white"/>
<path d="M266.659 92.8536H263.854V95.6585H266.659V92.8536Z" fill="white"/>
<path d="M272.268 92.8536H269.463V95.6585H272.268V92.8536Z" fill="white"/>
<path d="M275.073 92.8536H272.268V95.6585H275.073V92.8536Z" fill="white"/>
<path d="M277.878 92.8536H275.073V95.6585H277.878V92.8536Z" fill="white"/>
<path d="M280.683 92.8536H277.878V95.6585H280.683V92.8536Z" fill="white"/>
<path d="M289.098 92.8536H286.293V95.6585H289.098V92.8536Z" fill="white"/>
<path d="M291.902 92.8536H289.098V95.6585H291.902V92.8536Z" fill="white"/>
<path d="M294.707 92.8536H291.902V95.6585H294.707V92.8536Z" fill="white"/>
<path d="M300.317 92.8536H297.512V95.6585H300.317V92.8536Z" fill="white"/>
<path d="M303.122 92.8536H300.317V95.6585H303.122V92.8536Z" fill="white"/>
<path d="M305.927 92.8536H303.122V95.6585H305.927V92.8536Z" fill="white"/>
<path d="M308.732 92.8536H305.927V95.6585H308.732V92.8536Z" fill="white"/>
<path d="M314.341 92.8536H311.537V95.6585H314.341V92.8536Z" fill="white"/>
<path d="M317.146 92.8536H314.341V95.6585H317.146V92.8536Z" fill="white"/>
<path d="M319.951 92.8536H317.146V95.6585H319.951V92.8536Z" fill="white"/>
<path d="M331.171 92.8536H328.366V95.6585H331.171V92.8536Z" fill="white"/>
<path d="M336.78 92.8536H333.976V95.6585H336.78V92.8536Z" fill="white"/>
<path d="M339.585 92.8536H336.78V95.6585H339.585V92.8536Z" fill="white"/>
<path d="M241.415 95.6585H238.61V98.4634H241.415V95.6585Z" fill="white"/>
<path d="M249.829 95.6585H247.024V98.4634H249.829V95.6585Z" fill="white"/>
<path d="M258.244 95.6585H255.439V98.4634H258.244V95.6585Z" fill="white"/>
<path d="M261.049 95.6585H258.244V98.4634H261.049V95.6585Z" fill="white"/>
<path d="M269.463 95.6585H266.659V98.4634H269.463V95.6585Z" fill="white"/>
<path d="M272.268 95.6585H269.463V98.4634H272.268V95.6585Z" fill="white"/>
<path d="M275.073 95.6585H272.268V98.4634H275.073V95.6585Z" fill="white"/>
<path d="M280.683 95.6585H277.878V98.4634H280.683V95.6585Z" fill="white"/>
<path d="M283.488 95.6585H280.683V98.4634H283.488V95.6585Z" fill="white"/>
<path d="M289.098 95.6585H286.293V98.4634H289.098V95.6585Z" fill="white"/>
<path d="M291.902 95.6585H289.098V98.4634H291.902V95.6585Z" fill="white"/>
<path d="M294.707 95.6585H291.902V98.4634H294.707V95.6585Z" fill="white"/>
<path d="M305.927 95.6585H303.122V98.4634H305.927V95.6585Z" fill="white"/>
<path d="M314.341 95.6585H311.537V98.4634H314.341V95.6585Z" fill="white"/>
<path d="M317.146 95.6585H314.341V98.4634H317.146V95.6585Z" fill="white"/>
<path d="M322.756 95.6585H319.951V98.4634H322.756V95.6585Z" fill="white"/>
<path d="M331.171 95.6585H328.366V98.4634H331.171V95.6585Z" fill="white"/>
<path d="M336.78 95.6585H333.976V98.4634H336.78V95.6585Z" fill="white"/>
<path d="M244.219 98.4634H241.415V101.268H244.219V98.4634Z" fill="white"/>
<path d="M247.024 98.4634H244.219V101.268H247.024V98.4634Z" fill="white"/>
<path d="M249.829 98.4634H247.024V101.268H249.829V98.4634Z" fill="white"/>
<path d="M263.854 98.4634H261.049V101.268H263.854V98.4634Z" fill="white"/>
<path d="M266.659 98.4634H263.854V101.268H266.659V98.4634Z" fill="white"/>
<path d="M269.463 98.4634H266.659V101.268H269.463V98.4634Z" fill="white"/>
<path d="M272.268 98.4634H269.463V101.268H272.268V98.4634Z" fill="white"/>
<path d="M275.073 98.4634H272.268V101.268H275.073V98.4634Z" fill="white"/>
<path d="M283.488 98.4634H280.683V101.268H283.488V98.4634Z" fill="white"/>
<path d="M286.293 98.4634H283.488V101.268H286.293V98.4634Z" fill="white"/>
<path d="M289.098 98.4634H286.293V101.268H289.098V98.4634Z" fill="white"/>
<path d="M291.902 98.4634H289.098V101.268H291.902V98.4634Z" fill="white"/>
<path d="M294.707 98.4634H291.902V101.268H294.707V98.4634Z" fill="white"/>
<path d="M297.512 98.4634H294.707V101.268H297.512V98.4634Z" fill="white"/>
<path d="M300.317 98.4634H297.512V101.268H300.317V98.4634Z" fill="white"/>
<path d="M317.146 98.4634H314.341V101.268H317.146V98.4634Z" fill="white"/>
<path d="M319.951 98.4634H317.146V101.268H319.951V98.4634Z" fill="white"/>
<path d="M336.78 98.4634H333.976V101.268H336.78V98.4634Z" fill="white"/>
<path d="M339.585 98.4634H336.78V101.268H339.585V98.4634Z" fill="white"/>
<path d="M241.415 101.268H238.61V104.073H241.415V101.268Z" fill="white"/>
<path d="M249.829 101.268H247.024V104.073H249.829V101.268Z" fill="white"/>
<path d="M252.634 101.268H249.829V104.073H252.634V101.268Z" fill="white"/>
<path d="M255.439 101.268H252.634V104.073H255.439V101.268Z" fill="white"/>
<path d="M258.244 101.268H255.439V104.073H258.244V101.268Z" fill="white"/>
<path d="M263.854 101.268H261.049V104.073H263.854V101.268Z" fill="white"/>
<path d="M269.463 101.268H266.659V104.073H269.463V101.268Z" fill="white"/>
<path d="M272.268 101.268H269.463V104.073H272.268V101.268Z" fill="white"/>
<path d="M277.878 101.268H275.073V104.073H277.878V101.268Z" fill="white"/>
<path d="M280.683 101.268H277.878V104.073H280.683V101.268Z" fill="white"/>
<path d="M289.098 101.268H286.293V104.073H289.098V101.268Z" fill="white"/>
<path d="M300.317 101.268H297.512V104.073H300.317V101.268Z" fill="white"/>
<path d="M303.122 101.268H300.317V104.073H303.122V101.268Z" fill="white"/>
<path d="M317.146 101.268H314.341V104.073H317.146V101.268Z" fill="white"/>
<path d="M319.951 101.268H317.146V104.073H319.951V101.268Z" fill="white"/>
<path d="M322.756 101.268H319.951V104.073H322.756V101.268Z" fill="white"/>
<path d="M325.561 101.268H322.756V104.073H325.561V101.268Z" fill="white"/>
<path d="M328.366 101.268H325.561V104.073H328.366V101.268Z" fill="white"/>
<path d="M336.78 101.268H333.976V104.073H336.78V101.268Z" fill="white"/>
<path d="M339.585 101.268H336.78V104.073H339.585V101.268Z" fill="white"/>
<path d="M342.39 101.268H339.585V104.073H342.39V101.268Z" fill="white"/>
<path d="M247.024 104.073H244.219V106.878H247.024V104.073Z" fill="white"/>
<path d="M249.829 104.073H247.024V106.878H249.829V104.073Z" fill="white"/>
<path d="M252.634 104.073H249.829V106.878H252.634V104.073Z" fill="white"/>
<path d="M263.854 104.073H261.049V106.878H263.854V104.073Z" fill="white"/>
<path d="M283.488 104.073H280.683V106.878H283.488V104.073Z" fill="white"/>
<path d="M286.293 104.073H283.488V106.878H286.293V104.073Z" fill="white"/>
<path d="M291.902 104.073H289.098V106.878H291.902V104.073Z" fill="white"/>
<path d="M305.927 104.073H303.122V106.878H305.927V104.073Z" fill="white"/>
<path d="M314.341 104.073H311.537V106.878H314.341V104.073Z" fill="white"/>
<path d="M317.146 104.073H314.341V106.878H317.146V104.073Z" fill="white"/>
<path d="M319.951 104.073H317.146V106.878H319.951V104.073Z" fill="white"/>
<path d="M322.756 104.073H319.951V106.878H322.756V104.073Z" fill="white"/>
<path d="M331.171 104.073H328.366V106.878H331.171V104.073Z" fill="white"/>
<path d="M333.976 104.073H331.171V106.878H333.976V104.073Z" fill="white"/>
<path d="M339.585 104.073H336.78V106.878H339.585V104.073Z" fill="white"/>
<path d="M244.219 106.878H241.415V109.683H244.219V106.878Z" fill="white"/>
<path d="M247.024 106.878H244.219V109.683H247.024V106.878Z" fill="white"/>
<path d="M255.439 106.878H252.634V109.683H255.439V106.878Z" fill="white"/>
<path d="M258.244 106.878H255.439V109.683H258.244V106.878Z" fill="white"/>
<path d="M266.659 106.878H263.854V109.683H266.659V106.878Z" fill="white"/>
<path d="M269.463 106.878H266.659V109.683H269.463V106.878Z" fill="white"/>
<path d="M272.268 106.878H269.463V109.683H272.268V106.878Z" fill="white"/>
<path d="M275.073 106.878H272.268V109.683H275.073V106.878Z" fill="white"/>
<path d="M280.683 106.878H277.878V109.683H280.683V106.878Z" fill="white"/>
<path d="M283.488 106.878H280.683V109.683H283.488V106.878Z" fill="white"/>
<path d="M286.293 106.878H283.488V109.683H286.293V106.878Z" fill="white"/>
<path d="M289.098 106.878H286.293V109.683H289.098V106.878Z" fill="white"/>
<path d="M297.512 106.878H294.707V109.683H297.512V106.878Z" fill="white"/>
<path d="M303.122 106.878H300.317V109.683H303.122V106.878Z" fill="white"/>
<path d="M305.927 106.878H303.122V109.683H305.927V106.878Z" fill="white"/>
<path d="M308.732 106.878H305.927V109.683H308.732V106.878Z" fill="white"/>
<path d="M311.537 106.878H308.732V109.683H311.537V106.878Z" fill="white"/>
<path d="M314.341 106.878H311.537V109.683H314.341V106.878Z" fill="white"/>
<path d="M317.146 106.878H314.341V109.683H317.146V106.878Z" fill="white"/>
<path d="M328.366 106.878H325.561V109.683H328.366V106.878Z" fill="white"/>
<path d="M331.171 106.878H328.366V109.683H331.171V106.878Z" fill="white"/>
<path d="M333.976 106.878H331.171V109.683H333.976V106.878Z" fill="white"/>
<path d="M336.78 106.878H333.976V109.683H336.78V106.878Z" fill="white"/>
<path d="M241.415 109.683H238.61V112.488H241.415V109.683Z" fill="white"/>
<path d="M247.024 109.683H244.219V112.488H247.024V109.683Z" fill="white"/>
<path d="M249.829 109.683H247.024V112.488H249.829V109.683Z" fill="white"/>
<path d="M252.634 109.683H249.829V112.488H252.634V109.683Z" fill="white"/>
<path d="M261.049 109.683H258.244V112.488H261.049V109.683Z" fill="white"/>
<path d="M289.098 109.683H286.293V112.488H289.098V109.683Z" fill="white"/>
<path d="M291.902 109.683H289.098V112.488H291.902V109.683Z" fill="white"/>
<path d="M300.317 109.683H297.512V112.488H300.317V109.683Z" fill="white"/>
<path d="M303.122 109.683H300.317V112.488H303.122V109.683Z" fill="white"/>
<path d="M308.732 109.683H305.927V112.488H308.732V109.683Z" fill="white"/>
<path d="M314.341 109.683H311.537V112.488H314.341V109.683Z" fill="white"/>
<path d="M317.146 109.683H314.341V112.488H317.146V109.683Z" fill="white"/>
<path d="M319.951 109.683H317.146V112.488H319.951V109.683Z" fill="white"/>
<path d="M328.366 109.683H325.561V112.488H328.366V109.683Z" fill="white"/>
<path d="M331.171 109.683H328.366V112.488H331.171V109.683Z" fill="white"/>
<path d="M336.78 109.683H333.976V112.488H336.78V109.683Z" fill="white"/>
<path d="M241.415 112.488H238.61V115.293H241.415V112.488Z" fill="white"/>
<path d="M249.829 112.488H247.024V115.293H249.829V112.488Z" fill="white"/>
<path d="M252.634 112.488H249.829V115.293H252.634V112.488Z" fill="white"/>
<path d="M255.439 112.488H252.634V115.293H255.439V112.488Z" fill="white"/>
<path d="M258.244 112.488H255.439V115.293H258.244V112.488Z" fill="white"/>
<path d="M266.659 112.488H263.854V115.293H266.659V112.488Z" fill="white"/>
<path d="M269.463 112.488H266.659V115.293H269.463V112.488Z" fill="white"/>
<path d="M272.268 112.488H269.463V115.293H272.268V112.488Z" fill="white"/>
<path d="M277.878 112.488H275.073V115.293H277.878V112.488Z" fill="white"/>
<path d="M291.902 112.488H289.098V115.293H291.902V112.488Z" fill="white"/>
<path d="M294.707 112.488H291.902V115.293H294.707V112.488Z" fill="white"/>
<path d="M300.317 112.488H297.512V115.293H300.317V112.488Z" fill="white"/>
<path d="M305.927 112.488H303.122V115.293H305.927V112.488Z" fill="white"/>
<path d="M322.756 112.488H319.951V115.293H322.756V112.488Z" fill="white"/>
<path d="M325.561 112.488H322.756V115.293H325.561V112.488Z" fill="white"/>
<path d="M333.976 112.488H331.171V115.293H333.976V112.488Z" fill="white"/>
<path d="M336.78 112.488H333.976V115.293H336.78V112.488Z" fill="white"/>
<path d="M339.585 112.488H336.78V115.293H339.585V112.488Z" fill="white"/>
<path d="M247.024 115.293H244.219V118.098H247.024V115.293Z" fill="white"/>
<path d="M261.049 115.293H258.244V118.098H261.049V115.293Z" fill="white"/>
<path d="M263.854 115.293H261.049V118.098H263.854V115.293Z" fill="white"/>
<path d="M272.268 115.293H269.463V118.098H272.268V115.293Z" fill="white"/>
<path d="M277.878 115.293H275.073V118.098H277.878V115.293Z" fill="white"/>
<path d="M286.293 115.293H283.488V118.098H286.293V115.293Z" fill="white"/>
<path d="M294.707 115.293H291.902V118.098H294.707V115.293Z" fill="white"/>
<path d="M297.512 115.293H294.707V118.098H297.512V115.293Z" fill="white"/>
<path d="M303.122 115.293H300.317V118.098H303.122V115.293Z" fill="white"/>
<path d="M305.927 115.293H303.122V118.098H305.927V115.293Z" fill="white"/>
<path d="M308.732 115.293H305.927V118.098H308.732V115.293Z" fill="white"/>
<path d="M311.537 115.293H308.732V118.098H311.537V115.293Z" fill="white"/>
<path d="M314.341 115.293H311.537V118.098H314.341V115.293Z" fill="white"/>
<path d="M317.146 115.293H314.341V118.098H317.146V115.293Z" fill="white"/>
<path d="M319.951 115.293H317.146V118.098H319.951V115.293Z" fill="white"/>
<path d="M331.171 115.293H328.366V118.098H331.171V115.293Z" fill="white"/>
<path d="M333.976 115.293H331.171V118.098H333.976V115.293Z" fill="white"/>
<path d="M336.78 115.293H333.976V118.098H336.78V115.293Z" fill="white"/>
<path d="M339.585 115.293H336.78V118.098H339.585V115.293Z" fill="white"/>
<path d="M241.415 118.098H238.61V120.902H241.415V118.098Z" fill="white"/>
<path d="M247.024 118.098H244.219V120.902H247.024V118.098Z" fill="white"/>
<path d="M258.244 118.098H255.439V120.902H258.244V118.098Z" fill="white"/>
<path d="M261.049 118.098H258.244V120.902H261.049V118.098Z" fill="white"/>
<path d="M269.463 118.098H266.659V120.902H269.463V118.098Z" fill="white"/>
<path d="M272.268 118.098H269.463V120.902H272.268V118.098Z" fill="white"/>
<path d="M280.683 118.098H277.878V120.902H280.683V118.098Z" fill="white"/>
<path d="M286.293 118.098H283.488V120.902H286.293V118.098Z" fill="white"/>
<path d="M289.098 118.098H286.293V120.902H289.098V118.098Z" fill="white"/>
<path d="M291.902 118.098H289.098V120.902H291.902V118.098Z" fill="white"/>
<path d="M297.512 118.098H294.707V120.902H297.512V118.098Z" fill="white"/>
<path d="M300.317 118.098H297.512V120.902H300.317V118.098Z" fill="white"/>
<path d="M303.122 118.098H300.317V120.902H303.122V118.098Z" fill="white"/>
<path d="M305.927 118.098H303.122V120.902H305.927V118.098Z" fill="white"/>
<path d="M314.341 118.098H311.537V120.902H314.341V118.098Z" fill="white"/>
<path d="M317.146 118.098H314.341V120.902H317.146V118.098Z" fill="white"/>
<path d="M319.951 118.098H317.146V120.902H319.951V118.098Z" fill="white"/>
<path d="M322.756 118.098H319.951V120.902H322.756V118.098Z" fill="white"/>
<path d="M328.366 118.098H325.561V120.902H328.366V118.098Z" fill="white"/>
<path d="M331.171 118.098H328.366V120.902H331.171V118.098Z" fill="white"/>
<path d="M247.024 120.902H244.219V123.707H247.024V120.902Z" fill="white"/>
<path d="M252.634 120.902H249.829V123.707H252.634V120.902Z" fill="white"/>
<path d="M255.439 120.902H252.634V123.707H255.439V120.902Z" fill="white"/>
<path d="M261.049 120.902H258.244V123.707H261.049V120.902Z" fill="white"/>
<path d="M263.854 120.902H261.049V123.707H263.854V120.902Z" fill="white"/>
<path d="M272.268 120.902H269.463V123.707H272.268V120.902Z" fill="white"/>
<path d="M277.878 120.902H275.073V123.707H277.878V120.902Z" fill="white"/>
<path d="M289.098 120.902H286.293V123.707H289.098V120.902Z" fill="white"/>
<path d="M300.317 120.902H297.512V123.707H300.317V120.902Z" fill="white"/>
<path d="M305.927 120.902H303.122V123.707H305.927V120.902Z" fill="white"/>
<path d="M314.341 120.902H311.537V123.707H314.341V120.902Z" fill="white"/>
<path d="M322.756 120.902H319.951V123.707H322.756V120.902Z" fill="white"/>
<path d="M336.78 120.902H333.976V123.707H336.78V120.902Z" fill="white"/>
<path d="M339.585 120.902H336.78V123.707H339.585V120.902Z" fill="white"/>
<path d="M244.219 123.707H241.415V126.512H244.219V123.707Z" fill="white"/>
<path d="M258.244 123.707H255.439V126.512H258.244V123.707Z" fill="white"/>
<path d="M275.073 123.707H272.268V126.512H275.073V123.707Z" fill="white"/>
<path d="M280.683 123.707H277.878V126.512H280.683V123.707Z" fill="white"/>
<path d="M283.488 123.707H280.683V126.512H283.488V123.707Z" fill="white"/>
<path d="M286.293 123.707H283.488V126.512H286.293V123.707Z" fill="white"/>
<path d="M289.098 123.707H286.293V126.512H289.098V123.707Z" fill="white"/>
<path d="M294.707 123.707H291.902V126.512H294.707V123.707Z" fill="white"/>
<path d="M297.512 123.707H294.707V126.512H297.512V123.707Z" fill="white"/>
<path d="M300.317 123.707H297.512V126.512H300.317V123.707Z" fill="white"/>
<path d="M303.122 123.707H300.317V126.512H303.122V123.707Z" fill="white"/>
<path d="M308.732 123.707H305.927V126.512H308.732V123.707Z" fill="white"/>
<path d="M314.341 123.707H311.537V126.512H314.341V123.707Z" fill="white"/>
<path d="M322.756 123.707H319.951V126.512H322.756V123.707Z" fill="white"/>
<path d="M325.561 123.707H322.756V126.512H325.561V123.707Z" fill="white"/>
<path d="M328.366 123.707H325.561V126.512H328.366V123.707Z" fill="white"/>
<path d="M333.976 123.707H331.171V126.512H333.976V123.707Z" fill="white"/>
<path d="M336.78 123.707H333.976V126.512H336.78V123.707Z" fill="white"/>
<path d="M244.219 126.512H241.415V129.317H244.219V126.512Z" fill="white"/>
<path d="M266.659 126.512H263.854V129.317H266.659V126.512Z" fill="white"/>
<path d="M275.073 126.512H272.268V129.317H275.073V126.512Z" fill="white"/>
<path d="M280.683 126.512H277.878V129.317H280.683V126.512Z" fill="white"/>
<path d="M283.488 126.512H280.683V129.317H283.488V126.512Z" fill="white"/>
<path d="M286.293 126.512H283.488V129.317H286.293V126.512Z" fill="white"/>
<path d="M289.098 126.512H286.293V129.317H289.098V126.512Z" fill="white"/>
<path d="M291.902 126.512H289.098V129.317H291.902V126.512Z" fill="white"/>
<path d="M303.122 126.512H300.317V129.317H303.122V126.512Z" fill="white"/>
<path d="M305.927 126.512H303.122V129.317H305.927V126.512Z" fill="white"/>
<path d="M308.732 126.512H305.927V129.317H308.732V126.512Z" fill="white"/>
<path d="M314.341 126.512H311.537V129.317H314.341V126.512Z" fill="white"/>
<path d="M317.146 126.512H314.341V129.317H317.146V126.512Z" fill="white"/>
<path d="M319.951 126.512H317.146V129.317H319.951V126.512Z" fill="white"/>
<path d="M322.756 126.512H319.951V129.317H322.756V126.512Z" fill="white"/>
<path d="M328.366 126.512H325.561V129.317H328.366V126.512Z" fill="white"/>
<path d="M331.171 126.512H328.366V129.317H331.171V126.512Z" fill="white"/>
<path d="M247.024 129.317H244.219V132.122H247.024V129.317Z" fill="white"/>
<path d="M252.634 129.317H249.829V132.122H252.634V129.317Z" fill="white"/>
<path d="M258.244 129.317H255.439V132.122H258.244V129.317Z" fill="white"/>
<path d="M263.854 129.317H261.049V132.122H263.854V129.317Z" fill="white"/>
<path d="M266.659 129.317H263.854V132.122H266.659V129.317Z" fill="white"/>
<path d="M272.268 129.317H269.463V132.122H272.268V129.317Z" fill="white"/>
<path d="M277.878 129.317H275.073V132.122H277.878V129.317Z" fill="white"/>
<path d="M283.488 129.317H280.683V132.122H283.488V129.317Z" fill="white"/>
<path d="M291.902 129.317H289.098V132.122H291.902V129.317Z" fill="white"/>
<path d="M297.512 129.317H294.707V132.122H297.512V129.317Z" fill="white"/>
<path d="M300.317 129.317H297.512V132.122H300.317V129.317Z" fill="white"/>
<path d="M305.927 129.317H303.122V132.122H305.927V129.317Z" fill="white"/>
<path d="M308.732 129.317H305.927V132.122H308.732V129.317Z" fill="white"/>
<path d="M317.146 129.317H314.341V132.122H317.146V129.317Z" fill="white"/>
<path d="M319.951 129.317H317.146V132.122H319.951V129.317Z" fill="white"/>
<path d="M322.756 129.317H319.951V132.122H322.756V129.317Z" fill="white"/>
<path d="M328.366 129.317H325.561V132.122H328.366V129.317Z" fill="white"/>
<path d="M331.171 129.317H328.366V132.122H331.171V129.317Z" fill="white"/>
<path d="M333.976 129.317H331.171V132.122H333.976V129.317Z" fill="white"/>
<path d="M336.78 129.317H333.976V132.122H336.78V129.317Z" fill="white"/>
<path d="M339.585 129.317H336.78V132.122H339.585V129.317Z" fill="white"/>
<path d="M249.829 132.122H247.024V134.927H249.829V132.122Z" fill="white"/>
<path d="M252.634 132.122H249.829V134.927H252.634V132.122Z" fill="white"/>
<path d="M255.439 132.122H252.634V134.927H255.439V132.122Z" fill="white"/>
<path d="M261.049 132.122H258.244V134.927H261.049V132.122Z" fill="white"/>
<path d="M263.854 132.122H261.049V134.927H263.854V132.122Z" fill="white"/>
<path d="M272.268 132.122H269.463V134.927H272.268V132.122Z" fill="white"/>
<path d="M277.878 132.122H275.073V134.927H277.878V132.122Z" fill="white"/>
<path d="M297.512 132.122H294.707V134.927H297.512V132.122Z" fill="white"/>
<path d="M300.317 132.122H297.512V134.927H300.317V132.122Z" fill="white"/>
<path d="M305.927 132.122H303.122V134.927H305.927V132.122Z" fill="white"/>
<path d="M308.732 132.122H305.927V134.927H308.732V132.122Z" fill="white"/>
<path d="M314.341 132.122H311.537V134.927H314.341V132.122Z" fill="white"/>
<path d="M328.366 132.122H325.561V134.927H328.366V132.122Z" fill="white"/>
<path d="M331.171 132.122H328.366V134.927H331.171V132.122Z" fill="white"/>
<path d="M336.78 132.122H333.976V134.927H336.78V132.122Z" fill="white"/>
<path d="M339.585 132.122H336.78V134.927H339.585V132.122Z" fill="white"/>
<path d="M342.39 132.122H339.585V134.927H342.39V132.122Z" fill="white"/>
<path d="M241.415 134.927H238.61V137.732H241.415V134.927Z" fill="white"/>
<path d="M249.829 134.927H247.024V137.732H249.829V134.927Z" fill="white"/>
<path d="M258.244 134.927H255.439V137.732H258.244V134.927Z" fill="white"/>
<path d="M261.049 134.927H258.244V137.732H261.049V134.927Z" fill="white"/>
<path d="M266.659 134.927H263.854V137.732H266.659V134.927Z" fill="white"/>
<path d="M269.463 134.927H266.659V137.732H269.463V134.927Z" fill="white"/>
<path d="M283.488 134.927H280.683V137.732H283.488V134.927Z" fill="white"/>
<path d="M286.293 134.927H283.488V137.732H286.293V134.927Z" fill="white"/>
<path d="M294.707 134.927H291.902V137.732H294.707V134.927Z" fill="white"/>
<path d="M297.512 134.927H294.707V137.732H297.512V134.927Z" fill="white"/>
<path d="M300.317 134.927H297.512V137.732H300.317V134.927Z" fill="white"/>
<path d="M305.927 134.927H303.122V137.732H305.927V134.927Z" fill="white"/>
<path d="M317.146 134.927H314.341V137.732H317.146V134.927Z" fill="white"/>
<path d="M319.951 134.927H317.146V137.732H319.951V134.927Z" fill="white"/>
<path d="M322.756 134.927H319.951V137.732H322.756V134.927Z" fill="white"/>
<path d="M325.561 134.927H322.756V137.732H325.561V134.927Z" fill="white"/>
<path d="M328.366 134.927H325.561V137.732H328.366V134.927Z" fill="white"/>
<path d="M333.976 134.927H331.171V137.732H333.976V134.927Z" fill="white"/>
<path d="M336.78 134.927H333.976V137.732H336.78V134.927Z" fill="white"/>
<path d="M342.39 134.927H339.585V137.732H342.39V134.927Z" fill="white"/>
<path d="M241.415 137.732H238.61V140.537H241.415V137.732Z" fill="white"/>
<path d="M244.219 137.732H241.415V140.537H244.219V137.732Z" fill="white"/>
<path d="M249.829 137.732H247.024V140.537H249.829V137.732Z" fill="white"/>
<path d="M252.634 137.732H249.829V140.537H252.634V137.732Z" fill="white"/>
<path d="M255.439 137.732H252.634V140.537H255.439V137.732Z" fill="white"/>
<path d="M263.854 137.732H261.049V140.537H263.854V137.732Z" fill="white"/>
<path d="M269.463 137.732H266.659V140.537H269.463V137.732Z" fill="white"/>
<path d="M272.268 137.732H269.463V140.537H272.268V137.732Z" fill="white"/>
<path d="M275.073 137.732H272.268V140.537H275.073V137.732Z" fill="white"/>
<path d="M277.878 137.732H275.073V140.537H277.878V137.732Z" fill="white"/>
<path d="M280.683 137.732H277.878V140.537H280.683V137.732Z" fill="white"/>
<path d="M289.098 137.732H286.293V140.537H289.098V137.732Z" fill="white"/>
<path d="M291.902 137.732H289.098V140.537H291.902V137.732Z" fill="white"/>
<path d="M294.707 137.732H291.902V140.537H294.707V137.732Z" fill="white"/>
<path d="M303.122 137.732H300.317V140.537H303.122V137.732Z" fill="white"/>
<path d="M305.927 137.732H303.122V140.537H305.927V137.732Z" fill="white"/>
<path d="M308.732 137.732H305.927V140.537H308.732V137.732Z" fill="white"/>
<path d="M314.341 137.732H311.537V140.537H314.341V137.732Z" fill="white"/>
<path d="M317.146 137.732H314.341V140.537H317.146V137.732Z" fill="white"/>
<path d="M319.951 137.732H317.146V140.537H319.951V137.732Z" fill="white"/>
<path d="M322.756 137.732H319.951V140.537H322.756V137.732Z" fill="white"/>
<path d="M331.171 137.732H328.366V140.537H331.171V137.732Z" fill="white"/>
<path d="M333.976 137.732H331.171V140.537H333.976V137.732Z" fill="white"/>
<path d="M252.634 140.537H249.829V143.341H252.634V140.537Z" fill="white"/>
<path d="M255.439 140.537H252.634V143.341H255.439V140.537Z" fill="white"/>
<path d="M258.244 140.537H255.439V143.341H258.244V140.537Z" fill="white"/>
<path d="M269.463 140.537H266.659V143.341H269.463V140.537Z" fill="white"/>
<path d="M275.073 140.537H272.268V143.341H275.073V140.537Z" fill="white"/>
<path d="M277.878 140.537H275.073V143.341H277.878V140.537Z" fill="white"/>
<path d="M280.683 140.537H277.878V143.341H280.683V140.537Z" fill="white"/>
<path d="M283.488 140.537H280.683V143.341H283.488V140.537Z" fill="white"/>
<path d="M289.098 140.537H286.293V143.341H289.098V140.537Z" fill="white"/>
<path d="M294.707 140.537H291.902V143.341H294.707V140.537Z" fill="white"/>
<path d="M300.317 140.537H297.512V143.341H300.317V140.537Z" fill="white"/>
<path d="M303.122 140.537H300.317V143.341H303.122V140.537Z" fill="white"/>
<path d="M305.927 140.537H303.122V143.341H305.927V140.537Z" fill="white"/>
<path d="M308.732 140.537H305.927V143.341H308.732V140.537Z" fill="white"/>
<path d="M311.537 140.537H308.732V143.341H311.537V140.537Z" fill="white"/>
<path d="M314.341 140.537H311.537V143.341H314.341V140.537Z" fill="white"/>
<path d="M317.146 140.537H314.341V143.341H317.146V140.537Z" fill="white"/>
<path d="M322.756 140.537H319.951V143.341H322.756V140.537Z" fill="white"/>
<path d="M328.366 140.537H325.561V143.341H328.366V140.537Z" fill="white"/>
<path d="M336.78 140.537H333.976V143.341H336.78V140.537Z" fill="white"/>
<path d="M247.024 143.341H244.219V146.146H247.024V143.341Z" fill="white"/>
<path d="M252.634 143.341H249.829V146.146H252.634V143.341Z" fill="white"/>
<path d="M272.268 143.341H269.463V146.146H272.268V143.341Z" fill="white"/>
<path d="M275.073 143.341H272.268V146.146H275.073V143.341Z" fill="white"/>
<path d="M277.878 143.341H275.073V146.146H277.878V143.341Z" fill="white"/>
<path d="M280.683 143.341H277.878V146.146H280.683V143.341Z" fill="white"/>
<path d="M283.488 143.341H280.683V146.146H283.488V143.341Z" fill="white"/>
<path d="M286.293 143.341H283.488V146.146H286.293V143.341Z" fill="white"/>
<path d="M289.098 143.341H286.293V146.146H289.098V143.341Z" fill="white"/>
<path d="M291.902 143.341H289.098V146.146H291.902V143.341Z" fill="white"/>
<path d="M294.707 143.341H291.902V146.146H294.707V143.341Z" fill="white"/>
<path d="M297.512 143.341H294.707V146.146H297.512V143.341Z" fill="white"/>
<path d="M300.317 143.341H297.512V146.146H300.317V143.341Z" fill="white"/>
<path d="M303.122 143.341H300.317V146.146H303.122V143.341Z" fill="white"/>
<path d="M305.927 143.341H303.122V146.146H305.927V143.341Z" fill="white"/>
<path d="M308.732 143.341H305.927V146.146H308.732V143.341Z" fill="white"/>
<path d="M317.146 143.341H314.341V146.146H317.146V143.341Z" fill="white"/>
<path d="M319.951 143.341H317.146V146.146H319.951V143.341Z" fill="white"/>
<path d="M322.756 143.341H319.951V146.146H322.756V143.341Z" fill="white"/>
<path d="M328.366 143.341H325.561V146.146H328.366V143.341Z" fill="white"/>
<path d="M331.171 143.341H328.366V146.146H331.171V143.341Z" fill="white"/>
<path d="M336.78 143.341H333.976V146.146H336.78V143.341Z" fill="white"/>
<path d="M339.585 143.341H336.78V146.146H339.585V143.341Z" fill="white"/>
<path d="M241.415 146.146H238.61V148.951H241.415V146.146Z" fill="white"/>
<path d="M244.219 146.146H241.415V148.951H244.219V146.146Z" fill="white"/>
<path d="M252.634 146.146H249.829V148.951H252.634V146.146Z" fill="white"/>
<path d="M258.244 146.146H255.439V148.951H258.244V146.146Z" fill="white"/>
<path d="M261.049 146.146H258.244V148.951H261.049V146.146Z" fill="white"/>
<path d="M269.463 146.146H266.659V148.951H269.463V146.146Z" fill="white"/>
<path d="M275.073 146.146H272.268V148.951H275.073V146.146Z" fill="white"/>
<path d="M277.878 146.146H275.073V148.951H277.878V146.146Z" fill="white"/>
<path d="M280.683 146.146H277.878V148.951H280.683V146.146Z" fill="white"/>
<path d="M289.098 146.146H286.293V148.951H289.098V146.146Z" fill="white"/>
<path d="M297.512 146.146H294.707V148.951H297.512V146.146Z" fill="white"/>
<path d="M300.317 146.146H297.512V148.951H300.317V146.146Z" fill="white"/>
<path d="M303.122 146.146H300.317V148.951H303.122V146.146Z" fill="white"/>
<path d="M308.732 146.146H305.927V148.951H308.732V146.146Z" fill="white"/>
<path d="M317.146 146.146H314.341V148.951H317.146V146.146Z" fill="white"/>
<path d="M319.951 146.146H317.146V148.951H319.951V146.146Z" fill="white"/>
<path d="M322.756 146.146H319.951V148.951H322.756V146.146Z" fill="white"/>
<path d="M325.561 146.146H322.756V148.951H325.561V146.146Z" fill="white"/>
<path d="M328.366 146.146H325.561V148.951H328.366V146.146Z" fill="white"/>
<path d="M331.171 146.146H328.366V148.951H331.171V146.146Z" fill="white"/>
<path d="M333.976 146.146H331.171V148.951H333.976V146.146Z" fill="white"/>
<path d="M336.78 146.146H333.976V148.951H336.78V146.146Z" fill="white"/>
<path d="M263.854 148.951H261.049V151.756H263.854V148.951Z" fill="white"/>
<path d="M266.659 148.951H263.854V151.756H266.659V148.951Z" fill="white"/>
<path d="M272.268 148.951H269.463V151.756H272.268V148.951Z" fill="white"/>
<path d="M275.073 148.951H272.268V151.756H275.073V148.951Z" fill="white"/>
<path d="M277.878 148.951H275.073V151.756H277.878V148.951Z" fill="white"/>
<path d="M283.488 148.951H280.683V151.756H283.488V148.951Z" fill="white"/>
<path d="M286.293 148.951H283.488V151.756H286.293V148.951Z" fill="white"/>
<path d="M303.122 148.951H300.317V151.756H303.122V148.951Z" fill="white"/>
<path d="M305.927 148.951H303.122V151.756H305.927V148.951Z" fill="white"/>
<path d="M311.537 148.951H308.732V151.756H311.537V148.951Z" fill="white"/>
<path d="M314.341 148.951H311.537V151.756H314.341V148.951Z" fill="white"/>
<path d="M319.951 148.951H317.146V151.756H319.951V148.951Z" fill="white"/>
<path d="M331.171 148.951H328.366V151.756H331.171V148.951Z" fill="white"/>
<path d="M339.585 148.951H336.78V151.756H339.585V148.951Z" fill="white"/>
<path d="M263.854 151.756H261.049V154.561H263.854V151.756Z" fill="white"/>
<path d="M272.268 151.756H269.463V154.561H272.268V151.756Z" fill="white"/>
<path d="M277.878 151.756H275.073V154.561H277.878V151.756Z" fill="white"/>
<path d="M280.683 151.756H277.878V154.561H280.683V151.756Z" fill="white"/>
<path d="M283.488 151.756H280.683V154.561H283.488V151.756Z" fill="white"/>
<path d="M289.098 151.756H286.293V154.561H289.098V151.756Z" fill="white"/>
<path d="M297.512 151.756H294.707V154.561H297.512V151.756Z" fill="white"/>
<path d="M303.122 151.756H300.317V154.561H303.122V151.756Z" fill="white"/>
<path d="M305.927 151.756H303.122V154.561H305.927V151.756Z" fill="white"/>
<path d="M308.732 151.756H305.927V154.561H308.732V151.756Z" fill="white"/>
<path d="M314.341 151.756H311.537V154.561H314.341V151.756Z" fill="white"/>
<path d="M319.951 151.756H317.146V154.561H319.951V151.756Z" fill="white"/>
<path d="M325.561 151.756H322.756V154.561H325.561V151.756Z" fill="white"/>
<path d="M331.171 151.756H328.366V154.561H331.171V151.756Z" fill="white"/>
<path d="M275.073 154.561H272.268V157.366H275.073V154.561Z" fill="white"/>
<path d="M277.878 154.561H275.073V157.366H277.878V154.561Z" fill="white"/>
<path d="M280.683 154.561H277.878V157.366H280.683V154.561Z" fill="white"/>
<path d="M286.293 154.561H283.488V157.366H286.293V154.561Z" fill="white"/>
<path d="M289.098 154.561H286.293V157.366H289.098V154.561Z" fill="white"/>
<path d="M291.902 154.561H289.098V157.366H291.902V154.561Z" fill="white"/>
<path d="M294.707 154.561H291.902V157.366H294.707V154.561Z" fill="white"/>
<path d="M297.512 154.561H294.707V157.366H297.512V154.561Z" fill="white"/>
<path d="M300.317 154.561H297.512V157.366H300.317V154.561Z" fill="white"/>
<path d="M303.122 154.561H300.317V157.366H303.122V154.561Z" fill="white"/>
<path d="M308.732 154.561H305.927V157.366H308.732V154.561Z" fill="white"/>
<path d="M317.146 154.561H314.341V157.366H317.146V154.561Z" fill="white"/>
<path d="M319.951 154.561H317.146V157.366H319.951V154.561Z" fill="white"/>
<path d="M331.171 154.561H328.366V157.366H331.171V154.561Z" fill="white"/>
<path d="M333.976 154.561H331.171V157.366H333.976V154.561Z" fill="white"/>
<path d="M336.78 154.561H333.976V157.366H336.78V154.561Z" fill="white"/>
<path d="M263.854 157.366H261.049V160.171H263.854V157.366Z" fill="white"/>
<path d="M272.268 157.366H269.463V160.171H272.268V157.366Z" fill="white"/>
<path d="M275.073 157.366H272.268V160.171H275.073V157.366Z" fill="white"/>
<path d="M277.878 157.366H275.073V160.171H277.878V157.366Z" fill="white"/>
<path d="M291.902 157.366H289.098V160.171H291.902V157.366Z" fill="white"/>
<path d="M297.512 157.366H294.707V160.171H297.512V157.366Z" fill="white"/>
<path d="M300.317 157.366H297.512V160.171H300.317V157.366Z" fill="white"/>
<path d="M305.927 157.366H303.122V160.171H305.927V157.366Z" fill="white"/>
<path d="M314.341 157.366H311.537V160.171H314.341V157.366Z" fill="white"/>
<path d="M319.951 157.366H317.146V160.171H319.951V157.366Z" fill="white"/>
<path d="M322.756 157.366H319.951V160.171H322.756V157.366Z" fill="white"/>
<path d="M325.561 157.366H322.756V160.171H325.561V157.366Z" fill="white"/>
<path d="M328.366 157.366H325.561V160.171H328.366V157.366Z" fill="white"/>
<path d="M331.171 157.366H328.366V160.171H331.171V157.366Z" fill="white"/>
<path d="M333.976 157.366H331.171V160.171H333.976V157.366Z" fill="white"/>
<path d="M336.78 157.366H333.976V160.171H336.78V157.366Z" fill="white"/>
<path d="M339.585 157.366H336.78V160.171H339.585V157.366Z" fill="white"/>
<path d="M342.39 157.366H339.585V160.171H342.39V157.366Z" fill="white"/>
<path d="M266.659 160.171H263.854V162.976H266.659V160.171Z" fill="white"/>
<path d="M269.463 160.171H266.659V162.976H269.463V160.171Z" fill="white"/>
<path d="M275.073 160.171H272.268V162.976H275.073V160.171Z" fill="white"/>
<path d="M286.293 160.171H283.488V162.976H286.293V160.171Z" fill="white"/>
<path d="M294.707 160.171H291.902V162.976H294.707V160.171Z" fill="white"/>
<path d="M297.512 160.171H294.707V162.976H297.512V160.171Z" fill="white"/>
<path d="M303.122 160.171H300.317V162.976H303.122V160.171Z" fill="white"/>
<path d="M305.927 160.171H303.122V162.976H305.927V160.171Z" fill="white"/>
<path d="M308.732 160.171H305.927V162.976H308.732V160.171Z" fill="white"/>
<path d="M311.537 160.171H308.732V162.976H311.537V160.171Z" fill="white"/>
<path d="M317.146 160.171H314.341V162.976H317.146V160.171Z" fill="white"/>
<path d="M319.951 160.171H317.146V162.976H319.951V160.171Z" fill="white"/>
<path d="M322.756 160.171H319.951V162.976H322.756V160.171Z" fill="white"/>
<path d="M325.561 160.171H322.756V162.976H325.561V160.171Z" fill="white"/>
<path d="M328.366 160.171H325.561V162.976H328.366V160.171Z" fill="white"/>
<path d="M342.39 160.171H339.585V162.976H342.39V160.171Z" fill="white"/>
<path d="M269.463 162.976H266.659V165.78H269.463V162.976Z" fill="white"/>
<path d="M275.073 162.976H272.268V165.78H275.073V162.976Z" fill="white"/>
<path d="M280.683 162.976H277.878V165.78H280.683V162.976Z" fill="white"/>
<path d="M286.293 162.976H283.488V165.78H286.293V162.976Z" fill="white"/>
<path d="M297.512 162.976H294.707V165.78H297.512V162.976Z" fill="white"/>
<path d="M300.317 162.976H297.512V165.78H300.317V162.976Z" fill="white"/>
<path d="M303.122 162.976H300.317V165.78H303.122V162.976Z" fill="white"/>
<path d="M305.927 162.976H303.122V165.78H305.927V162.976Z" fill="white"/>
<path d="M311.537 162.976H308.732V165.78H311.537V162.976Z" fill="white"/>
<path d="M317.146 162.976H314.341V165.78H317.146V162.976Z" fill="white"/>
<path d="M319.951 162.976H317.146V165.78H319.951V162.976Z" fill="white"/>
<path d="M325.561 162.976H322.756V165.78H325.561V162.976Z" fill="white"/>
<path d="M333.976 162.976H331.171V165.78H333.976V162.976Z" fill="white"/>
<path d="M266.659 165.78H263.854V168.585H266.659V165.78Z" fill="white"/>
<path d="M272.268 165.78H269.463V168.585H272.268V165.78Z" fill="white"/>
<path d="M275.073 165.78H272.268V168.585H275.073V165.78Z" fill="white"/>
<path d="M277.878 165.78H275.073V168.585H277.878V165.78Z" fill="white"/>
<path d="M289.098 165.78H286.293V168.585H289.098V165.78Z" fill="white"/>
<path d="M291.902 165.78H289.098V168.585H291.902V165.78Z" fill="white"/>
<path d="M294.707 165.78H291.902V168.585H294.707V165.78Z" fill="white"/>
<path d="M297.512 165.78H294.707V168.585H297.512V165.78Z" fill="white"/>
<path d="M300.317 165.78H297.512V168.585H300.317V165.78Z" fill="white"/>
<path d="M303.122 165.78H300.317V168.585H303.122V165.78Z" fill="white"/>
<path d="M308.732 165.78H305.927V168.585H308.732V165.78Z" fill="white"/>
<path d="M314.341 165.78H311.537V168.585H314.341V165.78Z" fill="white"/>
<path d="M317.146 165.78H314.341V168.585H317.146V165.78Z" fill="white"/>
<path d="M331.171 165.78H328.366V168.585H331.171V165.78Z" fill="white"/>
<path d="M333.976 165.78H331.171V168.585H333.976V165.78Z" fill="white"/>
<path d="M336.78 165.78H333.976V168.585H336.78V165.78Z" fill="white"/>
<path d="M339.585 165.78H336.78V168.585H339.585V165.78Z" fill="white"/>
<path d="M263.854 168.585H261.049V171.39H263.854V168.585Z" fill="white"/>
<path d="M269.463 168.585H266.659V171.39H269.463V168.585Z" fill="white"/>
<path d="M275.073 168.585H272.268V171.39H275.073V168.585Z" fill="white"/>
<path d="M283.488 168.585H280.683V171.39H283.488V168.585Z" fill="white"/>
<path d="M289.098 168.585H286.293V171.39H289.098V168.585Z" fill="white"/>
<path d="M294.707 168.585H291.902V171.39H294.707V168.585Z" fill="white"/>
<path d="M297.512 168.585H294.707V171.39H297.512V168.585Z" fill="white"/>
<path d="M300.317 168.585H297.512V171.39H300.317V168.585Z" fill="white"/>
<path d="M308.732 168.585H305.927V171.39H308.732V168.585Z" fill="white"/>
<path d="M317.146 168.585H314.341V171.39H317.146V168.585Z" fill="white"/>
<path d="M325.561 168.585H322.756V171.39H325.561V168.585Z" fill="white"/>
<path d="M328.366 168.585H325.561V171.39H328.366V168.585Z" fill="white"/>
<path d="M336.78 168.585H333.976V171.39H336.78V168.585Z" fill="white"/>
<path d="M339.585 168.585H336.78V171.39H339.585V168.585Z" fill="white"/>
<path d="M342.39 168.585H339.585V171.39H342.39V168.585Z" fill="white"/>
<path d="M255.299 67.6097H241.555H238.61V70.5549V84.2988V87.2439H241.555H255.299H258.244V84.2988V70.5549V67.6097H255.299ZM255.299 84.2988H241.555V70.5549H255.299V84.2988Z" fill="white"/>
<path d="M339.445 67.6097H325.701H322.756V70.5549V84.2988V87.2439H325.701H339.445H342.39V84.2988V70.5549V67.6097H339.445ZM339.445 84.2988H325.701V70.5549H339.445V84.2988Z" fill="white"/>
<path d="M255.299 151.756H241.555H238.61V154.701V168.445V171.39H241.555H255.299H258.244V168.445V154.701V151.756H255.299ZM255.299 168.445H241.555V154.701H255.299V168.445Z" fill="white"/>
<path d="M252.634 73.2195H244.219V81.6341H252.634V73.2195Z" fill="white"/>
<path d="M336.78 73.2195H328.366V81.6341H336.78V73.2195Z" fill="white"/>
<path d="M252.634 157.366H244.219V165.78H252.634V157.366Z" fill="white"/>
</mask>
<g mask="url(#mask0_296_3659)">
<path d="M342.39 67.6097H238.61V171.39H342.39V67.6097Z" fill="url(#paint1_linear_296_3659)"/>
</g>
</g>
<defs>
<linearGradient id="paint0_linear_296_3659" x1="172" y1="63.5" x2="187" y2="179" gradientUnits="userSpaceOnUse">
<stop stop-color="#383838"/>
<stop offset="1"/>
</linearGradient>
<linearGradient id="paint1_linear_296_3659" x1="238.61" y1="67.6097" x2="238.61" y2="171.39" gradientUnits="userSpaceOnUse">
<stop offset="0.05" stop-color="white"/>
<stop offset="0.95" stop-color="#DBDBDB"/>
</linearGradient>
<clipPath id="clip0_296_3659">
<rect width="115" height="115" fill="white" transform="translate(233 62)"/>
</clipPath>
</defs>
</svg>
