<svg width="231" height="72" viewBox="0 0 231 72" fill="none" xmlns="http://www.w3.org/2000/svg">
<path d="M92.5 24.6818C92.2576 22.5303 91.2576 20.8636 89.5 19.6818C87.7424 18.4848 85.5303 17.8864 82.8636 17.8864C80.9545 17.8864 79.303 18.1894 77.9091 18.7955C76.5152 19.3864 75.4318 20.2045 74.6591 21.25C73.9015 22.2803 73.5227 23.4545 73.5227 24.7727C73.5227 25.8788 73.7803 26.8333 74.2955 27.6364C74.8258 28.4394 75.5152 29.1136 76.3636 29.6591C77.2273 30.1894 78.1515 30.6364 79.1364 31C80.1212 31.3485 81.0682 31.6364 81.9773 31.8636L86.5227 33.0455C88.0076 33.4091 89.5303 33.9015 91.0909 34.5227C92.6515 35.1439 94.0985 35.9621 95.4318 36.9773C96.7652 37.9924 97.8409 39.25 98.6591 40.75C99.4924 42.25 99.9091 44.0455 99.9091 46.1364C99.9091 48.7727 99.2273 51.1136 97.8636 53.1591C96.5152 55.2045 94.553 56.8182 91.9773 58C89.4167 59.1818 86.3182 59.7727 82.6818 59.7727C79.197 59.7727 76.1818 59.2197 73.6364 58.1136C71.0909 57.0076 69.0985 55.4394 67.6591 53.4091C66.2197 51.3636 65.4242 48.9394 65.2727 46.1364H72.3182C72.4545 47.8182 73 49.2197 73.9545 50.3409C74.9242 51.447 76.1591 52.2727 77.6591 52.8182C79.1742 53.3485 80.8333 53.6136 82.6364 53.6136C84.6212 53.6136 86.3864 53.303 87.9318 52.6818C89.4924 52.0455 90.7197 51.1667 91.6136 50.0455C92.5076 48.9091 92.9545 47.5833 92.9545 46.0682C92.9545 44.6894 92.5606 43.5606 91.7727 42.6818C91 41.803 89.947 41.0758 88.6136 40.5C87.2955 39.9242 85.803 39.4167 84.1364 38.9773L78.6364 37.4773C74.9091 36.4621 71.9545 34.9697 69.7727 33C67.6061 31.0303 66.5227 28.4242 66.5227 25.1818C66.5227 22.5 67.25 20.1591 68.7045 18.1591C70.1591 16.1591 72.1288 14.6061 74.6136 13.5C77.0985 12.3788 79.9015 11.8182 83.0227 11.8182C86.1742 11.8182 88.9545 12.3712 91.3636 13.4773C93.7879 14.5833 95.697 16.1061 97.0909 18.0455C98.4849 19.9697 99.2121 22.1818 99.2727 24.6818H92.5ZM110.071 38.2727V59H103.276V12.4545H109.98V29.7727H110.412C111.23 27.8939 112.48 26.4015 114.162 25.2955C115.844 24.1894 118.041 23.6364 120.753 23.6364C123.147 23.6364 125.238 24.1288 127.026 25.1136C128.829 26.0985 130.223 27.5682 131.208 29.5227C132.208 31.4621 132.708 33.8864 132.708 36.7955V59H125.912V37.6136C125.912 35.053 125.253 33.0682 123.935 31.6591C122.617 30.2348 120.783 29.5227 118.435 29.5227C116.829 29.5227 115.389 29.8636 114.117 30.5455C112.859 31.2273 111.867 32.2273 111.139 33.5455C110.427 34.8485 110.071 36.4242 110.071 38.2727ZM152.341 59.7045C148.902 59.7045 145.94 58.9697 143.455 57.5C140.985 56.0152 139.076 53.9318 137.728 51.25C136.394 48.553 135.728 45.3939 135.728 41.7727C135.728 38.197 136.394 35.0455 137.728 32.3182C139.076 29.5909 140.955 27.4621 143.364 25.9318C145.788 24.4015 148.621 23.6364 151.864 23.6364C153.834 23.6364 155.743 23.9621 157.591 24.6136C159.44 25.2652 161.099 26.2879 162.568 27.6818C164.038 29.0758 165.197 30.8864 166.046 33.1136C166.894 35.3258 167.318 38.0152 167.318 41.1818V43.5909H139.568V38.5H160.659C160.659 36.7121 160.296 35.1288 159.568 33.75C158.841 32.3561 157.818 31.2576 156.5 30.4545C155.197 29.6515 153.667 29.25 151.909 29.25C150 29.25 148.334 29.7197 146.909 30.6591C145.5 31.5833 144.409 32.7955 143.637 34.2955C142.879 35.7803 142.5 37.3939 142.5 39.1364V43.1136C142.5 45.447 142.909 47.4318 143.728 49.0682C144.561 50.7045 145.72 51.9545 147.205 52.8182C148.69 53.6667 150.424 54.0909 152.409 54.0909C153.697 54.0909 154.871 53.9091 155.932 53.5455C156.993 53.1667 157.909 52.6061 158.682 51.8636C159.455 51.1212 160.046 50.2045 160.455 49.1136L166.887 50.2727C166.371 52.1667 165.447 53.8258 164.114 55.25C162.796 56.6591 161.137 57.7576 159.137 58.5455C157.152 59.3182 154.887 59.7045 152.341 59.7045ZM177.174 12.4545V59H170.378V12.4545H177.174ZM188.631 12.4545V59H181.836V12.4545H188.631ZM207.998 59.7045C204.725 59.7045 201.869 58.9545 199.43 57.4545C196.99 55.9545 195.096 53.8561 193.748 51.1591C192.399 48.4621 191.725 45.3106 191.725 41.7045C191.725 38.0833 192.399 34.9167 193.748 32.2045C195.096 29.4924 196.99 27.3864 199.43 25.8864C201.869 24.3864 204.725 23.6364 207.998 23.6364C211.27 23.6364 214.127 24.3864 216.566 25.8864C219.005 27.3864 220.899 29.4924 222.248 32.2045C223.596 34.9167 224.27 38.0833 224.27 41.7045C224.27 45.3106 223.596 48.4621 222.248 51.1591C220.899 53.8561 219.005 55.9545 216.566 57.4545C214.127 58.9545 211.27 59.7045 207.998 59.7045ZM208.02 54C210.142 54 211.899 53.4394 213.293 52.3182C214.687 51.197 215.717 49.7045 216.384 47.8409C217.066 45.9773 217.407 43.9242 217.407 41.6818C217.407 39.4545 217.066 37.4091 216.384 35.5455C215.717 33.6667 214.687 32.1591 213.293 31.0227C211.899 29.8864 210.142 29.3182 208.02 29.3182C205.884 29.3182 204.111 29.8864 202.702 31.0227C201.308 32.1591 200.27 33.6667 199.589 35.5455C198.922 37.4091 198.589 39.4545 198.589 41.6818C198.589 43.9242 198.922 45.9773 199.589 47.8409C200.27 49.7045 201.308 51.197 202.702 52.3182C204.111 53.4394 205.884 54 208.02 54Z" fill="#D5D5D5"/>
<rect y="15" width="18" height="42" rx="9" fill="#D9D9D9"/>
<rect x="22" y="23" width="13" height="26" rx="6.5" fill="#D9D9D9"/>
</svg>
